<svg id="Layer_2" data-name="Layer 2" xmlns="http://www.w3.org/2000/svg" viewBox="0 0 584.17 597.5"><circle cx="444.25" cy="507.01" r="7.28" fill="#fff"/><circle cx="494.53" cy="507.01" r="7.28" fill="#fff"/><path d="M477.3,359.45l.14-7.08s.23-1.31,1.09-1.2h9.89a1.31,1.31,0,0,1,1.35,1.44l.28,6.85s.12,1.09-.83,1.12-11.17,0-11.17,0A1,1,0,0,1,477.3,359.45Z" fill="#fff"/><path d="M518.69,425.38l-24.19-.46s-3.86-57.75-3.63-60.27-1.38-2-1.38-2-8.18.24-10.55,0a2.2,2.2,0,0,0-2.52,2.07l-2.06,35.39c-1.61,2.29-3.6.23-3.6.23v-8.79c-.53-2.37-2.52-.77-2.52-.77L459.61,398,459,380.55c-3.89-4.51-6.65,0-6.65,0v19.8c-2.29,2.21-4,0-4,0v-3.9c-1.22-2-4.13,0-4.13,0l-13.3,11.16v24.91h-3.21a2.79,2.79,0,0,0-2.62,1.66,2.14,2.14,0,0,0,.06,1.82,2.46,2.46,0,0,0,2.23,1.3h67.33l-.12-7.8,24.08.12Zm-72-.19h-5.12V411.81h5.12Zm12.05,0h-5.12V411.81h5.12Zm12.05,0h-5.12V411.81h5.12Zm12,0h-5.12V411.81h5.12Z" fill="#fff"/><path d="M523.92,421.49a5.93,5.93,0,1,0,5.93,5.93A5.93,5.93,0,0,0,523.92,421.49Zm-.23,8.23a2.23,2.23,0,1,1,2.23-2.23A2.23,2.23,0,0,1,523.69,429.72Z" fill="#fff"/><path d="M497.05,332.05,473,290.4a2.53,2.53,0,0,0-4.39,0l-24,41.65a2.53,2.53,0,0,0,2.2,3.8h48.08A2.54,2.54,0,0,0,497.05,332.05Zm-25.91-1.13a2.52,2.52,0,1,1,2.52-2.52A2.51,2.51,0,0,1,471.14,330.92Zm1.75-9.74a.59.59,0,0,1-.58.55h-2.9a.52.52,0,0,1-.51-.49l-.84-17.4a.49.49,0,0,1,.49-.51h5.39a.29.29,0,0,1,.29.31Z" fill="#fff"/><path d="M391.79,296.91l-.42,65.28a6.18,6.18,0,0,0,1.91,4.56c4.85,4.6,18.13,14.29,31.88-1.4a5.63,5.63,0,0,0,1.39-3.72V297.5a6.37,6.37,0,0,0-1.95-4.62c-4.33-4.18-15.6-12-30.91.1A5,5,0,0,0,391.79,296.91Z" fill="none" stroke="#fff" stroke-miterlimit="10" stroke-width="4"/><circle cx="405.17" cy="355.8" r="7.39" fill="#fff"/><path d="M400.87,352.41v-22.7s4.08-6.59,8.6.23v22S405.1,347.88,400.87,352.41Z" fill="#fff"/><rect x="413.14" y="324.61" width="4.41" height="2.24" fill="#fff"/><rect x="413.14" y="331.07" width="4.41" height="2.24" fill="#fff"/><rect x="413.14" y="337.53" width="4.41" height="2.24" fill="#fff"/><rect x="413.14" y="343.99" width="4.41" height="2.24" fill="#fff"/><path d="M398.58,316.52c.4-.21.8-.46,1.21-.73s.81-.56,1.21-.86.77-.63,1.14-1,.7-.69,1-1.05a10.68,10.68,0,0,0,1.07-1.44,2.66,2.66,0,0,0,.42-1.37.94.94,0,0,0-.32-.75,1.22,1.22,0,0,0-.83-.27,1.54,1.54,0,0,0-1,.38,1.86,1.86,0,0,0-.55,1.33l-3.51-.56a5,5,0,0,1,.51-1.78,4.23,4.23,0,0,1,1.05-1.34,4.27,4.27,0,0,1,1.49-.84,5.93,5.93,0,0,1,1.88-.29,6,6,0,0,1,1.94.3,4.74,4.74,0,0,1,1.54.83,3.67,3.67,0,0,1,1,1.27,3.63,3.63,0,0,1,.36,1.62,4.29,4.29,0,0,1-.39,1.8,7.29,7.29,0,0,1-1,1.59,10.85,10.85,0,0,1-1.36,1.35c-.5.41-1,.78-1.49,1.11h4.42v3h-9.81Z" fill="#fff"/><path d="M414.23,319.17a5.56,5.56,0,0,1-3.24-.89,4.78,4.78,0,0,1-1.8-2.62l3.22-.63a1.84,1.84,0,0,0,1.78,1,2.15,2.15,0,0,0,1.35-.4,1.56,1.56,0,0,0,.07-2.26,1.87,1.87,0,0,0-1.26-.4,4.22,4.22,0,0,0-1.11.13,2.41,2.41,0,0,0-.89.54l-2.48-.7.81-6.68h8.05v3.06H413.2l-.22,1.58a3.73,3.73,0,0,1,1-.4,5.26,5.26,0,0,1,1.11-.1,4.58,4.58,0,0,1,3.29,1.08,3.89,3.89,0,0,1,1.12,2.95,4.88,4.88,0,0,1-.37,1.95,4.27,4.27,0,0,1-1.08,1.49,4.87,4.87,0,0,1-1.69.94A6.52,6.52,0,0,1,414.23,319.17Z" fill="#fff"/><rect x="315.91" y="364.19" width="9.48" height="20.18" fill="#fff"/><rect x="360.24" y="364.19" width="9.48" height="20.18" fill="#fff"/><path d="M327.19,367.4v13.34a1.35,1.35,0,0,0,1.27,1.37l3.4.18a1.84,1.84,0,0,1,1,.52c2.48,1.94,9.74,10.5,19.87,0a1.46,1.46,0,0,1,1-.47l3.21.07a1.34,1.34,0,0,0,1.37-1.34V367.45A1.34,1.34,0,0,0,357,366.1h-2.09a1.33,1.33,0,0,1-.95-.38c-1.8-1.82-10.18-9-21.79.09a1.36,1.36,0,0,1-.84.29l-2.55,0A1.58,1.58,0,0,0,327.19,367.4Z" fill="#fff"/><path d="M338.38,355.1H335a1.36,1.36,0,0,0-1,.4,2.25,2.25,0,0,0,0,3.47,1.4,1.4,0,0,0,1,.4l16.77-.21a1.36,1.36,0,0,0,1.23-.79,3,3,0,0,0,.09-2.45,1.39,1.39,0,0,0-1.27-.82Z" fill="#fff"/><rect x="337.81" y="348.1" width="10.59" height="7.15" fill="#fff"/><path d="M324.08,338.59c-.79.87-2.21,2.94.07,4.88a1.25,1.25,0,0,0,.81.28h36.18a1.28,1.28,0,0,0,1-.51,3.51,3.51,0,0,0,0-4.58,1.32,1.32,0,0,0-1-.49H325A1.31,1.31,0,0,0,324.08,338.59Z" fill="#fff"/><path d="M341.52,348.1v-9.93s1.91-2.6,3.82,0v9.93Z" fill="#fff"/><path d="M368.23,372.15h-3.37a1.4,1.4,0,0,0-1,.4,2.26,2.26,0,0,0,0,3.47,1.42,1.42,0,0,0,1,.4l16.77-.21a1.36,1.36,0,0,0,1.23-.79A3,3,0,0,0,383,373a1.39,1.39,0,0,0-1.27-.81Z" fill="#fff"/><circle cx="358.85" cy="286.86" r="7.28" fill="#fff"/><circle cx="314.38" cy="286.86" r="7.28" fill="#fff"/><circle cx="298.1" cy="286.86" r="7.28" fill="#fff"/><rect x="280.85" y="250.11" width="63.52" height="22.47" rx="2.92" fill="#fff"/><path d="M375.85,277.86c-1,.17-.7-1-.7-1s.17-3.16.17-3.56.53-.69.53-.69-.13-5,0-5.84a2.75,2.75,0,0,0-.4-1.66s-9.74-13.59-10.54-14.57a2.56,2.56,0,0,0-1.95-.91H349.69c-2.23.4-2.63,3.61-2.63,3.61v20.41a2.12,2.12,0,0,1-2,1.28l-61.68.32c-2.29-1.14-2.52,1.15-2.52,1.15v8.14c-.23,1.49.69,1.28.69,1.28h8.14s1.58-8.15,8.88-8c6.82.18,7.85,6.69,7.85,6.69s1.5-6.84,8.26-6.57c7,.28,8,7.85,8,7.85h27.46s.18-7.87,8.54-7.93,8.83,7.85,8.83,7.85,7.46.17,8.09,0,.8-1.2.8-1.2S376.81,277.69,375.85,277.86Zm-22.66-12.65V254h8.87l7.3,11.2Z" fill="#fff"/><path d="M328.17,209.87h0l-12-18a1.08,1.08,0,0,0-1.8,0l-11.55,17.42h0a15.15,15.15,0,0,0-3.58,9.78,16,16,0,0,0,32,0A15.19,15.19,0,0,0,328.17,209.87Zm-11.34,18.58c6.18-3.46,7.86-10.27,8.28-12.75a.22.22,0,0,1,.42,0C328.72,226.85,316.83,228.45,316.83,228.45Z" fill="#fff"/><path d="M269.85,193.89l-8.45,5.54a4.88,4.88,0,0,0-1.28-.18,5.08,5.08,0,1,0,5.09,5.08,5.22,5.22,0,0,0-.23-1.43Z" fill="#fff"/><path d="M244.18,212.8l2.95-1.73s1.68-.6,1,1.05l-2.8,1.77S243.55,214.51,244.18,212.8Z" fill="#fff"/><path d="M242.24,203.2h3.41s1.75.34.32,1.4l-3.32.1S240.82,204.35,242.24,203.2Z" fill="#fff"/><path d="M245.08,193.56l2.83,1.93s1.25,1.27-.53,1.34l-2.8-1.78S243.27,193.72,245.08,193.56Z" fill="#fff"/><path d="M252.09,187l1.29,3.17s.34,1.75-1.18.82l-1.35-3S250.49,186.15,252.09,187Z" fill="#fff"/><path d="M261.42,185.05l-.08,3.42s-.38,1.74-1.41.28l0-3.32S260.3,183.61,261.42,185.05Z" fill="#fff"/><path d="M270.71,188l-1.91,2.83s-1.26,1.26-1.34-.52l1.77-2.81S270.55,186.2,270.71,188Z" fill="#fff"/><path d="M276.89,194.8l-2.9,1.81s-1.67.64-1-1l2.76-1.85S277.47,193.07,276.89,194.8Z" fill="#fff"/><path d="M279,204.77l-3.42-.06s-1.75-.38-.29-1.41l3.32-.05S280.45,203.65,279,204.77Z" fill="#fff"/><path d="M276.41,214l-3-1.63s-1.37-1.14.39-1.39l3,1.5S278.2,213.66,276.41,214Z" fill="#fff"/><circle cx="260.63" cy="204.01" r="24.44" fill="none" stroke="#fff" stroke-miterlimit="10" stroke-width="4"/><rect x="253.24" y="229.52" width="14.06" height="3.97" fill="#fff"/><rect x="247.2" y="232.31" width="25.7" height="7.53" fill="#fff"/><path d="M264.8,81a34.35,34.35,0,0,0-5.3.41,44.36,44.36,0,0,0-85.83-8.87,26.88,26.88,0,0,0-32.86,23.23h-.17a26.9,26.9,0,0,0-4,53.5v.29H259.89A34.45,34.45,0,1,0,264.8,81Zm-79.93,38.28.49.47h-1.05Z" fill="#fff"/><circle cx="133.31" cy="223.38" r="6.12" fill="#fff"/><circle cx="170.46" cy="223.61" r="6.12" fill="#fff"/><path d="M186.09,221.76s-.92-20.41-3.1-26.56a12,12,0,0,0-8.14-7.49s-48.26-.57-52,0-3.78,4.7-3.78,4.7v28c.11,3.12,2,3.12,2,3.12h3.55c.6-4.66,2.84-6.81,4.94-7.79a8.52,8.52,0,0,1,7.83.51,9.28,9.28,0,0,1,4.6,7.28h19.92a8.28,8.28,0,0,1,11.19-7.78,9.11,9.11,0,0,1,6.15,7.78l5.5,0C186.43,223.71,186.09,221.76,186.09,221.76ZM132.7,203.61a1.45,1.45,0,0,1-1.45,1.45H124.6a1.45,1.45,0,0,1-1.45-1.45v-8.33a1.45,1.45,0,0,1,1.45-1.46h6.65a1.45,1.45,0,0,1,1.45,1.46Zm15.43,0a1.45,1.45,0,0,1-1.45,1.45H140a1.45,1.45,0,0,1-1.46-1.45v-8.33a1.46,1.46,0,0,1,1.46-1.46h6.65a1.45,1.45,0,0,1,1.45,1.46Zm15.42,0a1.45,1.45,0,0,1-1.45,1.45h-6.65a1.45,1.45,0,0,1-1.45-1.45v-8.33a1.45,1.45,0,0,1,1.45-1.46h6.65a1.45,1.45,0,0,1,1.45,1.46Zm15.43,0a1.45,1.45,0,0,1-1.45,1.45h-6.65a1.45,1.45,0,0,1-1.45-1.45v-8.33a1.45,1.45,0,0,1,1.45-1.46h.44a7.66,7.66,0,0,1,7.66,7.67Z" fill="#fff"/><path d="M77,191.24V158.59a1.61,1.61,0,1,0-3.21,0v32.65a7.72,7.72,0,1,0,3.21,0Z" fill="#fff"/><path d="M83.36,184.74V142.5a8.22,8.22,0,1,0-16.43,0v43.19a15.92,15.92,0,0,0-6.56,12.92,15.51,15.51,0,1,0,31,0A15.88,15.88,0,0,0,83.36,184.74Z" fill="none" stroke="#fff" stroke-miterlimit="10" stroke-width="5"/><path d="M173.61,445c2.06-6.87,3.09-13.73,2.06-20.93a9.82,9.82,0,0,1-3.09,3.43c-3.09,2.06-6.86,1.37-9.6-1-4.12-3.43-7.55-6.86-11.33-10.29a43.13,43.13,0,0,0-10-6.18,43.29,43.29,0,0,0-26.07-4.46c2.75,1.37,4.8,3.78,4.8,6.86a9.77,9.77,0,0,1-2.4,5.84c-4.11,5.49-9.26,9.26-13,15.09-6.17,9.95-9.26,20.93-7.89,32.25a12,12,0,0,1,4.12-4.12c3.09-1.37,6.18-.34,8.58,1.72,5.14,4.46,9.26,9.26,15.09,13a47.48,47.48,0,0,0,32.25,7.89,9.23,9.23,0,0,1-4.46-6.18,8.83,8.83,0,0,1,2.06-6.52C162.29,463.17,170.18,455.62,173.61,445Zm-37.18,14.16c-9.82,0-17.78-5.79-17.78-12.94s8-12.95,17.78-12.95,17.78,5.8,17.78,12.95S146.25,459.15,136.43,459.15Z" fill="#fff"/><rect x="76.38" y="386.94" width="120.1" height="120.1" rx="12" fill="none" stroke="#fff" stroke-miterlimit="10" stroke-width="5"/><rect x="59.54" y="398.84" width="16.34" height="8.08" rx="2.98" fill="#fff"/><rect x="55.5" y="399.9" width="8.63" height="5.96" rx="2.98" fill="#fff"/><rect x="59.54" y="413.13" width="16.34" height="8.08" rx="2.98" fill="#fff"/><rect x="55.5" y="414.19" width="8.63" height="5.96" rx="2.98" fill="#fff"/><rect x="59.54" y="427.41" width="16.34" height="8.08" rx="2.98" fill="#fff"/><rect x="55.5" y="428.47" width="8.63" height="5.96" rx="2.98" fill="#fff"/><rect x="59.54" y="441.7" width="16.34" height="8.08" rx="2.98" fill="#fff"/><rect x="55.5" y="442.76" width="8.63" height="5.96" rx="2.98" fill="#fff"/><rect x="59.54" y="455.98" width="16.34" height="8.08" rx="2.98" fill="#fff"/><rect x="55.5" y="457.04" width="8.63" height="5.96" rx="2.98" fill="#fff"/><rect x="59.54" y="470.27" width="16.34" height="8.08" rx="2.98" fill="#fff"/><rect x="55.5" y="471.33" width="8.63" height="5.96" rx="2.98" fill="#fff"/><rect x="59.54" y="484.55" width="16.34" height="8.08" rx="2.98" fill="#fff"/><rect x="55.5" y="485.61" width="8.63" height="5.96" rx="2.98" fill="#fff"/><rect x="83.82" y="511.17" width="16.34" height="8.08" rx="2.98" transform="translate(-423.22 607.19) rotate(-90)" fill="#fff"/><rect x="87.67" y="520.12" width="8.63" height="5.96" rx="2.98" transform="translate(-431.12 615.09) rotate(-90)" fill="#fff"/><rect x="98.1" y="511.17" width="16.34" height="8.08" rx="2.98" transform="translate(-408.94 621.48) rotate(-90)" fill="#fff"/><rect x="101.96" y="520.12" width="8.63" height="5.96" rx="2.98" transform="translate(-416.83 629.38) rotate(-90)" fill="#fff"/><rect x="112.39" y="511.17" width="16.34" height="8.08" rx="2.98" transform="translate(-394.65 635.77) rotate(-90)" fill="#fff"/><rect x="116.24" y="520.12" width="8.63" height="5.96" rx="2.98" transform="translate(-402.55 643.66) rotate(-90)" fill="#fff"/><rect x="126.67" y="511.17" width="16.34" height="8.08" rx="2.98" transform="translate(-380.37 650.05) rotate(-90)" fill="#fff"/><rect x="130.53" y="520.12" width="8.63" height="5.96" rx="2.98" transform="translate(-388.26 657.95) rotate(-90)" fill="#fff"/><rect x="140.96" y="511.17" width="16.34" height="8.08" rx="2.98" transform="translate(-366.08 664.34) rotate(-90)" fill="#fff"/><rect x="144.81" y="520.12" width="8.63" height="5.96" rx="2.98" transform="translate(-373.98 672.23) rotate(-90)" fill="#fff"/><rect x="155.24" y="511.17" width="16.34" height="8.08" rx="2.98" transform="translate(-351.8 678.62) rotate(-90)" fill="#fff"/><rect x="159.1" y="520.12" width="8.63" height="5.96" rx="2.98" transform="translate(-359.69 686.52) rotate(-90)" fill="#fff"/><rect x="169.53" y="511.17" width="16.34" height="8.08" rx="2.98" transform="translate(-337.51 692.91) rotate(-90)" fill="#fff"/><rect x="173.38" y="520.12" width="8.63" height="5.96" rx="2.98" transform="translate(-345.41 700.8) rotate(-90)" fill="#fff"/><rect x="200.99" y="489.7" width="13.07" height="7.91" fill="#fff"/><rect x="200.99" y="474.57" width="13.07" height="7.91" fill="#fff"/><rect x="200.99" y="459.44" width="13.07" height="7.91" fill="#fff"/><rect x="200.99" y="444.31" width="13.07" height="7.91" fill="#fff"/><rect x="200.99" y="429.19" width="13.07" height="7.91" fill="#fff"/><rect x="200.99" y="414.06" width="13.07" height="7.91" fill="#fff"/><rect x="200.99" y="398.93" width="13.07" height="7.91" fill="#fff"/><rect x="84.24" y="365.97" width="6.27" height="16.66" fill="#fff"/><rect x="99.91" y="365.97" width="6.27" height="16.66" fill="#fff"/><rect x="115.57" y="365.97" width="6.27" height="16.66" fill="#fff"/><rect x="131.24" y="365.97" width="6.27" height="16.66" fill="#fff"/><rect x="146.9" y="365.97" width="6.27" height="16.66" fill="#fff"/><rect x="162.57" y="365.97" width="6.27" height="16.66" fill="#fff"/><path d="M400.75,487.89a5.92,5.92,0,1,0,5.92,5.92A5.92,5.92,0,0,0,400.75,487.89Zm-.24,8.22a2.23,2.23,0,1,1,2.23-2.23A2.23,2.23,0,0,1,400.51,496.11Z" fill="#fff"/><path d="M367.58,459.31a5.93,5.93,0,1,0,5.92,5.93A5.93,5.93,0,0,0,367.58,459.31Zm-.24,8.23a2.23,2.23,0,1,1,2.23-2.23A2.23,2.23,0,0,1,367.34,467.54Z" fill="#fff"/><path d="M301,472.6a5.93,5.93,0,1,0,5.92,5.92A5.92,5.92,0,0,0,301,472.6Zm-.24,8.23a2.24,2.24,0,1,1,2.23-2.24A2.23,2.23,0,0,1,300.74,480.83Z" fill="#fff"/><path d="M408.62,413.34a5.93,5.93,0,1,0,5.92,5.92A5.93,5.93,0,0,0,408.62,413.34Zm-.24,8.23a2.24,2.24,0,1,1,2.23-2.24A2.23,2.23,0,0,1,408.38,421.57Z" fill="#fff"/><path d="M336.32,413.15a5.93,5.93,0,1,0,5.92,5.92A5.92,5.92,0,0,0,336.32,413.15Zm-.24,8.22a2.23,2.23,0,1,1,2.23-2.23A2.23,2.23,0,0,1,336.08,421.37Z" fill="#fff"/><path d="M426.55,379.21a5.93,5.93,0,1,0,5.92,5.93A5.92,5.92,0,0,0,426.55,379.21Zm-.24,8.23a2.24,2.24,0,1,1,2.23-2.23A2.23,2.23,0,0,1,426.31,387.44Z" fill="#fff"/><path d="M300.29,348.1a5.93,5.93,0,1,0,5.92,5.93A5.94,5.94,0,0,0,300.29,348.1Zm-.24,8.23a2.23,2.23,0,1,1,2.23-2.23A2.23,2.23,0,0,1,300.05,356.33Z" fill="#fff"/><path d="M361.85,316a5.93,5.93,0,1,0,5.92,5.93A5.93,5.93,0,0,0,361.85,316Zm-.24,8.23a2.24,2.24,0,1,1,2.23-2.23A2.23,2.23,0,0,1,361.61,324.23Z" fill="#fff"/><path d="M325.39,298.12a5.92,5.92,0,1,0,5.92,5.92A5.92,5.92,0,0,0,325.39,298.12Zm-.24,8.22a2.23,2.23,0,1,1,2.23-2.23A2.23,2.23,0,0,1,325.15,306.34Z" fill="#fff"/><path d="M237.41,252.56a5.93,5.93,0,1,0,5.93,5.93A5.92,5.92,0,0,0,237.41,252.56Zm-.23,8.23a2.24,2.24,0,1,1,2.23-2.23A2.23,2.23,0,0,1,237.18,260.79Z" fill="#fff"/><path d="M183.91,261.77a5.93,5.93,0,1,0,5.92,5.93A5.92,5.92,0,0,0,183.91,261.77Zm-.24,8.23a2.23,2.23,0,1,1,2.24-2.23A2.23,2.23,0,0,1,183.67,270Z" fill="#fff"/><path d="M164.34,239.84a5.92,5.92,0,1,0,5.92,5.92A5.92,5.92,0,0,0,164.34,239.84Zm-.24,8.22a2.23,2.23,0,1,1,2.23-2.23A2.23,2.23,0,0,1,164.1,248.06Z" fill="#fff"/><path d="M133.2,243.6a5.93,5.93,0,1,0,5.93,5.92A5.92,5.92,0,0,0,133.2,243.6Zm-.23,8.23a2.24,2.24,0,1,1,2.23-2.24A2.24,2.24,0,0,1,133,251.83Z" fill="#fff"/><path d="M89.06,225.58A5.93,5.93,0,1,0,95,231.5,5.92,5.92,0,0,0,89.06,225.58Zm-.24,8.23a2.24,2.24,0,1,1,2.24-2.23A2.23,2.23,0,0,1,88.82,233.81Z" fill="#fff"/><path d="M67.08,227.57A5.93,5.93,0,1,0,73,233.49,5.92,5.92,0,0,0,67.08,227.57Zm-.23,8.23a2.24,2.24,0,1,1,2.23-2.24A2.24,2.24,0,0,1,66.85,235.8Z" fill="#fff"/><path d="M70.94,284.51a5.93,5.93,0,1,0,5.93,5.92A5.92,5.92,0,0,0,70.94,284.51Zm-.23,8.23a2.24,2.24,0,1,1,2.23-2.23A2.23,2.23,0,0,1,70.71,292.74Z" fill="#fff"/><path d="M105.19,156.26a5.92,5.92,0,1,0,5.92,5.92A5.92,5.92,0,0,0,105.19,156.26Zm-.24,8.22a2.23,2.23,0,1,1,2.23-2.23A2.23,2.23,0,0,1,105,164.48Z" fill="#fff"/><path d="M68.47,326.33a5.93,5.93,0,1,0,5.93,5.92A5.92,5.92,0,0,0,68.47,326.33Zm-.23,8.23a2.24,2.24,0,1,1,2.23-2.24A2.23,2.23,0,0,1,68.24,334.56Z" fill="#fff"/><polyline points="214.06 493.81 233.67 493.65 249.95 508.96 353.32 508.96 388.9 473.64 405.17 473.64 415.96 463.92 464.12 463.92 484.52 443.75 485.67 437.1" fill="none" stroke="#fff" stroke-miterlimit="10" stroke-width="4"/><polyline points="214.06 478.52 267.61 478.52 294.37 452.22 309.34 452.22 321.72 463.92 336.08 463.92 353.32 446.99 447.61 446.99 457.92 435.34" fill="none" stroke="#fff" stroke-miterlimit="10" stroke-width="4"/><polyline points="395.82 493.81 265.08 493.65 249.72 478.52" fill="none" stroke="#fff" stroke-miterlimit="10" stroke-width="4"/><line x1="298.53" y1="481.99" x2="286.84" y2="493.68" fill="none" stroke="#fff" stroke-miterlimit="10" stroke-width="4"/><line x1="337.89" y1="493.65" x2="365.17" y2="467.35" fill="none" stroke="#fff" stroke-miterlimit="10" stroke-width="4"/><polyline points="214.06 463.4 257.67 463.4 285.26 437.1 346.1 436.35 364.14 419.07 404.65 419.07" fill="none" stroke="#fff" stroke-miterlimit="10" stroke-width="4"/><polyline points="214.06 448.27 248.42 448.27 278.08 419.07 332.8 419.07" fill="none" stroke="#fff" stroke-miterlimit="10" stroke-width="4"/><polyline points="214.06 433.67 239.56 433.67 271.96 402.88 375.15 402.88 392.88 385.78 421.44 385.14" fill="none" stroke="#fff" stroke-miterlimit="10" stroke-width="4"/><line x1="408.38" y1="374.28" x2="408.38" y2="385.43" fill="none" stroke="#fff" stroke-miterlimit="10" stroke-width="4"/><polyline points="271.96 402.88 302.28 373.95 315.91 374.3" fill="none" stroke="#fff" stroke-miterlimit="10" stroke-width="4"/><polyline points="297.19 357.23 288.63 366.29 288.67 386.94" fill="none" stroke="#fff" stroke-miterlimit="10" stroke-width="4"/><polyline points="214.06 402.88 222.89 402.88 257.29 368.52 257.29 327.85 280.68 304.04 320.65 304.04" fill="none" stroke="#fff" stroke-miterlimit="10" stroke-width="4"/><polyline points="214.06 418.5 232.06 418.5 271.96 378.49 271.96 343.75 294.37 321.73 357.49 321.33" fill="none" stroke="#fff" stroke-miterlimit="10" stroke-width="4"/><polyline points="260.05 239.42 260.63 294.14 243.34 312.44 243.34 359.37 219.99 382.63 219.99 400.96" fill="none" stroke="#fff" stroke-miterlimit="10" stroke-width="4"/><polyline points="237.18 263.45 237.18 295.71 228.09 305.03 228.7 373.95" fill="none" stroke="#fff" stroke-miterlimit="10" stroke-width="4"/><polyline points="165.7 366.22 165.7 339.89 183.67 321.33 183.67 272.58" fill="none" stroke="#fff" stroke-miterlimit="10" stroke-width="4"/><polyline points="150.04 366.29 150.04 333.01 164.34 317.87 164.34 250.18" fill="none" stroke="#fff" stroke-miterlimit="10" stroke-width="4"/><polyline points="136.6 253.22 150.04 266.67 150.04 306.2 150.04 332.25" fill="none" stroke="#fff" stroke-miterlimit="10" stroke-width="4"/><polyline points="87.38 366.29 87.38 330.1 70.71 313.14 70.71 294.94" fill="none" stroke="#fff" stroke-miterlimit="10" stroke-width="4"/><polyline points="103.04 365.97 103.43 296.36 67.08 259.48 67.08 238.38" fill="none" stroke="#fff" stroke-miterlimit="10" stroke-width="4"/><polyline points="118.71 365.97 118.71 284.51 89.06 253.37 88.83 235.79" fill="none" stroke="#fff" stroke-miterlimit="10" stroke-width="4"/><polyline points="134.37 365.97 134.08 277.67 104.73 247.95 104.73 166.54" fill="none" stroke="#fff" stroke-miterlimit="10" stroke-width="4"/><path d="M178.14,386V353.88a8.25,8.25,0,0,1,2.23-5.63l17.55-18.64a8.23,8.23,0,0,0,2.23-5.63l-.07-175.4h16.43V333.13a8.21,8.21,0,0,1-2.25,5.65l-17.58,18.56a8.22,8.22,0,0,0-2.26,5.66l0,27.57a.24.24,0,0,1-.44.15c-1.54-2.06-7-8.16-15.88-4.73" fill="#fff"/><path d="M508.22,493.59a1,1,0,0,0-.63-1.14c-7.39-3.27-19-15.37-19-15.37l-7.28-.05c-1.15-.23-1.26,1.2-1.26,1.2s.23,20,0,21.73-1.09,1.26-1.09,1.26l-18.86-.17a1.55,1.55,0,0,1,.06-2.76s15.24.06,16.56.12,1.1-1.09,1.1-1.09-.12-23.45,0-25.39-.69-1.8-.69-1.8-48.44.25-50.27,0-1.72,1.66-1.72,1.66.11,29.7,0,32.16a2.36,2.36,0,0,0,2.12,2.64l7.57.36a12.2,12.2,0,0,1,4.21-6.91,9,9,0,0,1,11.22.2,10.24,10.24,0,0,1,3.31,6.75H485a11.38,11.38,0,0,1,5.15-7.9,7.73,7.73,0,0,1,7-.6,11,11,0,0,1,6.65,8.46s3,.1,3.61,0a1.26,1.26,0,0,0,.83-.71S508.05,494.4,508.22,493.59Zm-13.07-3.28-10.23-.16a.28.28,0,0,1-.28-.28v-5.62a.29.29,0,0,1,.28-.29h4.2c.13,0,.2.1.27.21a29.35,29.35,0,0,0,4.61,5.12C494.2,489.47,495.41,490.31,495.15,490.31Z" fill="#fff"/><polyline points="68.47 336.22 68.24 348.14 87.38 362.97" fill="none" stroke="#fff" stroke-miterlimit="10" stroke-width="4"/></svg>
